<svg xmlns="http://www.w3.org/2000/svg" viewBox="0 0 64 80" x="0px" y="0px"><title>14- horizontal- move- left right- arrow</title><path d="M5,33.73l22,12.7a2,2,0,0,0,3-1.73V19.3a2,2,0,0,0-3-1.73L5,30.27A2,2,0,0,0,5,33.73Z"/><path d="M34,19.3V44.7a2,2,0,0,0,3,1.73l22-12.7a2,2,0,0,0,0-3.46L37,17.57A2,2,0,0,0,34,19.3Z"/><text x="0" y="79" fill="#000000" font-size="5px" font-weight="bold" font-family="'Helvetica Neue', Helvetica, Arial-Unicode, Arial, Sans-serif">Created by Andi Nur Abdillah</text><text x="0" y="84" fill="#000000" font-size="5px" font-weight="bold" font-family="'Helvetica Neue', Helvetica, Arial-Unicode, Arial, Sans-serif">from the Noun Project</text></svg>