<svg xmlns:dc="http://purl.org/dc/elements/1.1/" xmlns:cc="http://creativecommons.org/ns#" xmlns:rdf="http://www.w3.org/1999/02/22-rdf-syntax-ns#" xmlns:svg="http://www.w3.org/2000/svg" xmlns="http://www.w3.org/2000/svg" xmlns:sodipodi="http://sodipodi.sourceforge.net/DTD/sodipodi-0.dtd" xmlns:inkscape="http://www.inkscape.org/namespaces/inkscape" viewBox="0 0 8.4666665 10.583333625" version="1.1" x="0px" y="0px"><g transform="translate(0,-288.53333)"><path style="color:#000000;font-style:normal;font-variant:normal;font-weight:normal;font-stretch:normal;font-size:medium;line-height:normal;font-family:sans-serif;font-variant-ligatures:normal;font-variant-position:normal;font-variant-caps:normal;font-variant-numeric:normal;font-variant-alternates:normal;font-feature-settings:normal;text-indent:0;text-align:start;text-decoration:none;text-decoration-line:none;text-decoration-style:solid;text-decoration-color:#000000;letter-spacing:normal;word-spacing:normal;text-transform:none;writing-mode:lr-tb;direction:ltr;text-orientation:mixed;dominant-baseline:auto;baseline-shift:baseline;text-anchor:start;white-space:normal;shape-padding:0;clip-rule:nonzero;display:inline;overflow:visible;visibility:visible;opacity:1;isolation:auto;mix-blend-mode:normal;color-interpolation:sRGB;color-interpolation-filters:linearRGB;solid-color:#000000;solid-opacity:1;vector-effect:none;fill:#000000;fill-opacity:1;fill-rule:evenodd;stroke:none;stroke-width:1.99999988;stroke-linecap:round;stroke-linejoin:round;stroke-miterlimit:4;stroke-dasharray:none;stroke-dashoffset:0;stroke-opacity:1;paint-order:stroke fill markers;color-rendering:auto;image-rendering:auto;shape-rendering:auto;text-rendering:auto;enable-background:accumulate" d="M 16 3 C 10.350629 3 5.5407142 6.6188342 3.7539062 11.666016 A 1.0007401 1.0007401 0 0 0 5.640625 12.333984 C 7.151719 8.0655753 11.203873 5 16 5 C 22.086975 5 27 9.913071 27 16 A 1.0000999 1.0000999 0 0 0 28.707031 16.707031 L 30.707031 14.707031 A 1.0000999 1.0000999 0 1 0 29.292969 13.292969 L 28.779297 13.806641 C 27.729567 7.6843726 22.416981 3 16 3 z M 15.996094 6.9980469 C 11.037387 6.9980469 6.9980624 11.045204 6.9980469 16.003906 C 6.9980389 20.962609 11.03737 25.001953 15.996094 25.001953 C 20.954817 25.001953 25.001961 20.962609 25.001953 16.003906 C 25.001938 11.045204 20.954801 6.9980469 15.996094 6.9980469 z M 15.982422 10.984375 A 1.0001001 1.0001001 0 0 1 17 12.001953 L 17 15.582031 L 18.705078 17.294922 A 1.0001001 1.0001001 0 1 1 17.294922 18.705078 L 15.294922 16.705078 A 1.0001001 1.0001001 0 0 1 15 16.003906 L 15 12.001953 A 1.0001001 1.0001001 0 0 1 15.982422 10.984375 z M 3.9707031 15 A 1.0000999 1.0000999 0 0 0 3.2929688 15.292969 L 1.2929688 17.292969 A 1.0000999 1.0000999 0 1 0 2.7070312 18.707031 L 3.2207031 18.193359 C 4.2704327 24.315627 9.5830192 29 16 29 C 21.649371 29 26.459286 25.381203 28.246094 20.333984 A 1.0007359 1.0007359 0 0 0 26.359375 19.666016 C 24.848281 23.934387 20.796127 27 16 27 C 9.9130249 27 5 22.086967 5 16 A 1.0000999 1.0000999 0 0 0 3.9707031 15 z " transform="matrix(0.26458333,0,0,0.26458333,0,288.53333)"/></g><text x="0" y="23.4666669" fill="#000000" font-size="5px" font-weight="bold" font-family="'Helvetica Neue', Helvetica, Arial-Unicode, Arial, Sans-serif">Created by Mada Creative</text><text x="0" y="28.4666669" fill="#000000" font-size="5px" font-weight="bold" font-family="'Helvetica Neue', Helvetica, Arial-Unicode, Arial, Sans-serif">from the Noun Project</text></svg>